<?xml version="1.0" standalone="no"?>
<!DOCTYPE svg PUBLIC "-//W3C//DTD SVG 20010904//EN"
 "http://www.w3.org/TR/2001/REC-SVG-20010904/DTD/svg10.dtd">
<svg version="1.0" xmlns="http://www.w3.org/2000/svg"
 width="2000.000000pt" height="2000.000000pt" viewBox="0 0 2000.000000 2000.000000"
 preserveAspectRatio="xMidYMid meet">
<metadata>
Created by potrace 1.14, written by Peter Selinger 2001-2017
</metadata>
<g transform="translate(0.000000,2000.000000) scale(0.100000,-0.100000)"
fill="#000000" stroke="none">
<path d="M9598 19995 c-2 -1 -68 -6 -148 -10 -151 -7 -180 -9 -295 -19 -194
-18 -198 -18 -301 -31 -28 -4 -68 -8 -90 -10 -35 -3 -54 -6 -149 -20 -16 -2
-52 -7 -80 -10 -27 -4 -57 -8 -65 -11 -8 -2 -38 -6 -65 -9 -28 -3 -57 -8 -65
-10 -8 -2 -28 -6 -45 -9 -66 -11 -104 -18 -205 -38 -141 -27 -142 -27 -165
-32 -11 -3 -54 -12 -95 -21 -182 -39 -618 -152 -710 -185 -21 -7 -195 -62
-210 -65 -3 -1 -12 -4 -20 -8 -8 -3 -46 -15 -85 -28 -38 -12 -74 -24 -80 -28
-5 -3 -15 -6 -22 -7 -11 -2 -166 -57 -208 -74 -11 -5 -67 -27 -125 -49 -126
-48 -356 -143 -425 -176 -27 -13 -88 -40 -135 -61 -160 -72 -541 -268 -715
-367 -38 -22 -90 -51 -113 -64 -155 -87 -654 -404 -682 -433 -17 -17 -80 -60
-88 -60 -6 0 -12 -4 -14 -8 -1 -4 -34 -30 -73 -57 -38 -27 -86 -62 -105 -77
-19 -16 -73 -57 -120 -93 -130 -100 -134 -103 -269 -214 -413 -342 -831 -749
-1180 -1149 -29 -34 -65 -77 -80 -95 -14 -18 -34 -41 -44 -51 -9 -10 -30 -34
-45 -54 -15 -21 -29 -39 -33 -42 -18 -16 -302 -385 -359 -466 -8 -12 -65 -93
-125 -180 -125 -179 -305 -459 -385 -599 -107 -186 -152 -267 -202 -360 -58
-108 -278 -551 -278 -560 0 -2 -17 -41 -38 -87 -32 -69 -80 -183 -167 -393 -6
-16 -18 -46 -25 -65 -7 -19 -18 -48 -25 -65 -27 -62 -200 -568 -209 -610 -3
-11 -18 -65 -35 -120 -17 -55 -31 -101 -31 -102 0 -2 0 -4 -1 -5 0 -2 -2 -10
-4 -18 -2 -8 -15 -57 -29 -107 -14 -51 -28 -103 -31 -115 -2 -13 -18 -79 -35
-148 -16 -69 -32 -138 -35 -155 -3 -16 -10 -46 -15 -65 -5 -19 -12 -51 -15
-70 -3 -19 -8 -42 -10 -50 -5 -17 -13 -60 -21 -110 -3 -19 -7 -42 -9 -50 -2
-8 -7 -30 -10 -47 -3 -18 -8 -48 -11 -65 -3 -18 -7 -44 -9 -58 -2 -14 -5 -38
-9 -55 -6 -35 -22 -142 -31 -205 -3 -25 -8 -56 -10 -70 -2 -14 -7 -52 -10 -85
-4 -33 -8 -73 -10 -90 -4 -28 -14 -120 -21 -190 -1 -16 -6 -66 -9 -110 -3 -44
-8 -98 -10 -120 -19 -185 -27 -1017 -12 -1275 6 -106 9 -142 22 -300 16 -188
32 -331 55 -500 6 -41 13 -97 16 -125 3 -27 7 -56 10 -64 2 -8 7 -30 10 -50 3
-20 10 -63 16 -96 5 -33 11 -69 13 -80 6 -41 21 -123 30 -165 6 -26 12 -57 20
-100 10 -53 14 -72 19 -88 3 -9 7 -28 10 -42 2 -14 10 -47 16 -75 6 -27 14
-61 16 -75 3 -14 7 -32 10 -40 4 -8 8 -24 9 -35 2 -11 11 -47 20 -80 9 -33 18
-67 20 -75 4 -18 26 -100 54 -200 12 -41 28 -98 36 -125 17 -61 172 -532 184
-560 5 -11 19 -47 31 -80 12 -33 28 -73 35 -90 8 -16 21 -52 30 -80 10 -27 26
-70 37 -95 27 -59 41 -92 73 -170 15 -36 45 -103 66 -148 22 -46 39 -86 39
-88 0 -19 290 -588 364 -713 20 -34 36 -63 36 -65 0 -6 165 -280 245 -406 307
-485 725 -1027 1120 -1450 90 -97 440 -445 525 -524 41 -38 95 -87 120 -110
75 -69 366 -315 419 -356 19 -14 72 -56 120 -94 93 -74 408 -305 481 -352 25
-16 47 -31 50 -34 7 -7 220 -147 298 -196 151 -94 184 -114 188 -114 2 0 27
-15 56 -33 29 -19 60 -37 68 -40 8 -4 31 -17 50 -28 19 -12 55 -32 80 -46 25
-13 86 -47 135 -74 232 -127 892 -439 929 -439 3 0 29 -11 58 -24 87 -39 372
-145 548 -203 91 -30 172 -57 180 -60 8 -3 20 -7 25 -8 6 -2 87 -26 180 -53
151 -45 227 -66 275 -78 8 -2 58 -14 110 -27 162 -41 294 -71 355 -82 11 -2
54 -11 95 -20 41 -9 91 -18 110 -21 19 -2 42 -6 50 -9 8 -2 31 -7 50 -10 19
-3 58 -10 85 -15 28 -5 70 -12 95 -15 25 -3 52 -8 60 -10 8 -2 36 -7 62 -10
26 -3 80 -10 120 -15 92 -13 131 -18 189 -24 25 -2 66 -7 90 -10 24 -4 67 -8
94 -10 63 -5 186 -16 245 -21 289 -27 1217 -27 1455 0 36 4 103 9 240 20 27 2
70 7 95 9 172 21 228 27 250 31 25 4 97 13 155 20 28 3 69 10 125 20 14 2 43
7 65 10 22 3 47 7 55 10 8 2 31 6 50 9 65 10 251 45 288 55 20 5 54 12 76 15
21 4 41 8 45 10 3 2 22 7 41 10 19 3 80 17 135 31 55 14 107 27 115 29 278 70
605 168 840 252 69 25 152 54 185 66 33 12 77 30 98 40 20 10 37 16 37 14 0
-3 25 6 55 20 31 13 62 24 70 24 8 0 15 5 15 12 0 6 3 8 6 5 4 -3 16 -1 28 5
11 7 23 13 26 13 3 1 22 9 44 18 21 9 40 17 42 17 2 0 32 13 66 29 35 15 97
43 138 61 97 42 505 244 638 315 391 211 871 518 1227 784 180 135 518 408
596 481 9 8 49 44 89 80 137 121 204 184 400 380 231 231 306 311 481 510 44
50 305 366 343 415 165 214 375 508 491 686 75 115 165 260 165 265 0 3 5 10
10 17 10 11 98 158 145 242 136 241 312 585 398 776 9 19 30 66 47 104 17 38
37 83 45 99 7 17 26 60 40 96 14 36 33 79 41 97 8 17 14 34 14 38 0 3 8 25 19
48 10 23 35 87 55 142 20 55 41 109 46 120 29 66 147 430 216 670 42 144 142
537 159 624 36 181 66 339 71 367 3 20 7 44 9 53 1 9 6 36 10 61 4 25 9 54 11
65 4 18 7 39 18 120 11 80 17 122 21 145 3 14 7 52 11 85 3 33 8 74 10 90 2
17 6 54 9 84 2 30 7 75 9 100 32 306 41 508 40 976 0 391 -4 534 -19 710 -3
33 -7 92 -10 130 -3 39 -7 84 -9 100 -2 17 -7 62 -11 100 -3 39 -8 81 -10 95
-2 14 -6 50 -9 80 -3 30 -8 64 -10 75 -2 11 -7 47 -11 80 -4 32 -8 66 -10 75
-1 8 -6 38 -9 65 -9 67 -16 107 -21 125 -3 8 -7 37 -10 64 -4 28 -8 52 -10 56
-2 3 -6 26 -10 50 -4 25 -13 75 -21 112 -7 37 -16 80 -19 95 -5 30 -10 51 -26
123 -5 25 -11 54 -13 65 -2 11 -20 85 -40 165 -20 80 -39 154 -41 165 -3 11
-16 61 -30 110 -14 50 -28 97 -30 105 -2 8 -11 39 -20 68 -8 28 -21 73 -29
100 -47 162 -204 609 -254 727 -9 21 -17 42 -18 45 0 3 -5 16 -11 30 -6 14
-34 81 -62 149 -29 68 -68 157 -87 198 -18 41 -34 76 -34 78 0 4 -128 274
-140 295 -5 8 -27 51 -49 95 -75 151 -251 469 -301 545 -5 8 -19 31 -30 50
-98 171 -353 558 -485 734 -22 30 -49 66 -60 82 -11 15 -58 77 -105 137 -47
60 -94 121 -105 136 -20 28 -151 187 -170 207 -6 6 -27 30 -46 54 -18 23 -43
52 -54 64 -11 12 -51 58 -90 101 -38 44 -97 109 -130 145 -96 104 -471 477
-580 575 -55 50 -112 102 -127 116 -15 15 -47 42 -70 60 -24 19 -47 39 -53 45
-8 10 -300 250 -330 272 -6 4 -42 33 -82 65 -40 31 -74 57 -77 57 -3 0 -17 10
-31 22 -14 12 -87 66 -162 119 -76 54 -143 102 -148 106 -20 16 -184 123 -315
207 -74 47 -141 90 -147 96 -7 6 -13 8 -13 4 0 -4 -8 0 -17 8 -17 14 -151 96
-183 111 -8 5 -24 13 -35 20 -77 46 -303 167 -480 257 -322 162 -567 271 -870
386 -93 36 -186 72 -205 79 -19 8 -116 42 -215 75 -99 33 -180 60 -180 61 0 0
-7 2 -15 4 -8 1 -60 16 -115 33 -55 17 -127 38 -160 47 -33 9 -85 23 -115 31
-30 9 -66 18 -79 20 -14 3 -28 7 -33 10 -8 5 -24 9 -78 20 -14 3 -77 18 -140
34 -63 15 -128 30 -145 33 -16 3 -41 8 -55 11 -68 15 -278 56 -310 61 -40 6
-203 34 -227 39 -12 2 -50 7 -84 11 -35 4 -66 8 -69 10 -3 1 -34 6 -70 10 -36
4 -72 8 -81 10 -21 4 -173 21 -274 30 -33 3 -82 7 -110 10 -77 7 -202 17 -280
21 -83 5 -972 13 -977 9z"/>
</g>
</svg>
